/* XPM */
static char *r11683884099[] = {
/* columns rows colors chars-per-pixel */
"32 32 21 1 ",
"  c None",
". c black",
"X c #202028",
"o c #5A0C0C",
"O c #474751",
"+ c #5B5B5B",
"@ c #A80000",
"# c #9C2323",
"$ c #C83838",
"% c #964A30",
"& c #F88058",
"* c #034C86",
"= c #0078D8",
"- c #6FB9F4",
"; c #28C0D8",
": c #AAAAB2",
"> c #F8B890",
", c #A8A0C8",
"< c #C8C8D8",
"1 c #E8E8F8",
"2 c #F8F8F8",
/* pixels */
"                                ",
"                                ",
"               ##               ",
"            ++#oo#++            ",
"           +1<<oo<<1+           ",
"          +1<$o##o$<1+          ",
"         +1<o###$##o<1+         ",
"         +<,###$$###,<+         ",
"         +<o##$$$$##o<+         ",
"         +,o#$$$$$$#o,ooo       ",
"         +,o##$$$$##ooo$$o      ",
"         .ooo######ooo.ooo      ",
"       ++.......XX....          ",
"        .........&22&.          ",
"      ....XX.>>X>>2.&.          ",
"        ++.X.@&X>>2.&.          ",
"          +...@>>>&&>.          ",
"           +..%%&&>>X           ",
"            .*O1%%%X            ",
"            .*=OO**             ",
"            .**==**             ",
"            .*::*=*             ",
"            .*%%*=*             ",
"            .X&&*=*             ",
"            .X>&***             ",
"            .=XX--.             ",
"            .*==--..            ",
"            .******-.           ",
"            ..=;;22.            ",
"             ......             ",
"                                ",
"                                "
};
