/* XPM */
static char *r51683884099[] = {
/* columns rows colors chars-per-pixel */
"32 32 24 1 ",
"  c None",
". c black",
"X c #202028",
"o c #5A0C0C",
"O c #600000",
"+ c #303040",
"@ c #474751",
"# c #5B5B5B",
"$ c gray48",
"% c #A80000",
"& c #9C2323",
"* c #C83838",
"= c #964A30",
"- c #F88058",
"; c #034C86",
": c #0078D8",
"> c #6FB9F4",
", c #28C0D8",
"< c #AAAAB2",
"1 c #F8B890",
"2 c #A8A0C8",
"3 c #C8C8D8",
"4 c #E8E8F8",
"5 c #F8F8F8",
/* pixels */
"                                ",
"             &&                 ",
"           ##&o####             ",
"          #43oo2334#            ",
"         #43*o&&oo34#           ",
"        #43o&&&*&&*34#          ",
"        #32&&&**&&&23#          ",
"        #3o&&****&&o3#oo        ",
"        #2o&******&o2o**o       ",
"        #2o&&****&&oooooo       ",
"        .ooo&&&&&&ooo.          ",
"      ##.......XX.....          ",
"       ..........-55-.          ",
"     ....XX..11X115.-.          ",
"     .-##.X..%-X115.-...        ",
"     .%;;;...X%111--1.11.       ",
"      .;;:.:@44---11+.-1.       ",
"        ;;:::@@;;;=+---=        ",
"         .+::,,,:;5<==O         ",
"          +:::;;;5<<OO          ",
"          +::;;;OOOO            ",
"          ;;;;OO;               ",
"          ;:>>:;;;;             ",
"      ;;  ;>>:;;;;;; .          ",
"     .,;;;:>:.  ;;::;,.         ",
"     .5::>>:.    ;;;:,.         ",
"     .55,...      ;::.          ",
"      ...         ...           ",
"                                ",
"       $$$$$$$$$$$$$$           ",
"       $$$$$$$$$$               ",
"                                "
};
