/* XPM */
static char *l31683884098[] = {
/* columns rows colors chars-per-pixel */
"32 32 23 1 ",
"  c None",
". c black",
"X c #202028",
"o c #5A0C0C",
"O c #600000",
"+ c #5B5B5B",
"@ c gray48",
"# c #A80000",
"$ c #9C2323",
"% c #C83838",
"& c #964A30",
"* c #1E8A35",
"= c #F88058",
"- c #034C86",
"; c #0078D8",
": c #6FB9F4",
"> c #28C0D8",
", c #AAAAB2",
"< c #F8B890",
"1 c #A8A0C8",
"2 c #C8C8D8",
"3 c #E8E8F8",
"4 c #F8F8F8",
/* pixels */
"                                ",
"                                ",
"                                ",
"              $$                ",
"            ++$o++++            ",
"           +32oo1223+           ",
"          +3%$o$$o123+          ",
"         +32o$$%$$$o23+         ",
"         +21$$$%%$$$12+         ",
"         +2o$$%%%%$$o2+         ",
"         o1o$%%%%%%$o1+         ",
"       ooooo$$%%%%$$o1+         ",
"      o%%.ooo$$$$$$ooo.         ",
"      ooooo...XX.......++       ",
"          .=.4<<.<<.....        ",
"          .=.4<<X=#.XX....      ",
"          .<==<<<#..X.++        ",
"           .<<===-;;...         ",
"           ..O>4-;;;;.          ",
"          .<<=&,4-;;;.          ",
"          .<===&,--;;-          ",
"           OOOOOO-;-;-          ",
"               -*--;;-          ",
"               -OO----          ",
"              .--;::--          ",
"              ----;:-           ",
"             .---.;::--.        ",
"            .>... ..;:;>.       ",
"             .;--.  .->4.       ",
"              ...@@@.>4.        ",
"               @@@@@@..         ",
"                                "
};
