/* XPM */
static char *l51683884098[] = {
/* columns rows colors chars-per-pixel */
"32 32 25 1 ",
"  c None",
". c black",
"X c #202028",
"o c #5A0C0C",
"O c #600000",
"+ c #303040",
"@ c #5B5B5B",
"# c gray48",
"$ c #A80000",
"% c #9C2323",
"& c #C83838",
"* c #964A30",
"= c #1E8A35",
"- c #2FAF4B",
"; c #F88058",
": c #034C86",
"> c #0078D8",
", c #6FB9F4",
"< c #28C0D8",
"1 c #AAAAB2",
"2 c #F8B890",
"3 c #A8A0C8",
"4 c #C8C8D8",
"5 c #E8E8F8",
"6 c #F8F8F8",
/* pixels */
"                                ",
"                 %%             ",
"             @@@@o%@@           ",
"            @5443oo45@          ",
"           @54oo%%o&45@         ",
"          @54&%%&%%%o45@        ",
"          @43%%%&&%%%34@        ",
"        oo@4o%%&&&&%%o4@        ",
"       o&&o3o%&&&&&&%o3@        ",
"       oooooo%%&&&&%%o3@        ",
"          .ooo%%%%%%ooo.        ",
"          .....XX.......@@      ",
"          .;66;..........       ",
"       .. .;.622X22..XX....     ",
"      .;*..;.622X;$.X..@@ O.    ",
"      .***.2;;22;$X..:::OO22.   ",
"       .**1.22;;;X..>::>O;;2.   ",
"        OO1:.***..::>:::OOOO.   ",
"          O.....=:>:>:          ",
"               :-=:>::          ",
"               :=-=:>:          ",
"               +OOO+++          ",
"             >>,,,,>>.          ",
"          . :,,,>::>>.  ..      ",
"         .6.:,,>:  .::...>.     ",
"         .6<>:>:    .:::.>.     ",
"          .6<>:      ...>>.     ",
"           ....         ..      ",
"                                ",
"               ###########      ",
"           ###############      ",
"                                "
};
