/* XPM */
static char *enemy11683883726[] = {
/* columns rows colors chars-per-pixel */
"32 32 6 1 ",
"  c None",
". c black",
"X c #301807",
"o c #5B2F11",
"O c #8C6635",
"+ c #B99F4F",
/* pixels */
"                                ",
"                                ",
"                                ",
"    .                           ",
"   .o.                          ",
"   .XO... ....                  ",
"   .XoOOo.oooo..                ",
"   .XXooXXo+++oX.               ",
"    .XXXXoOOO++oX...            ",
"     ..XXXoOOO++oXXo.           ",
"     .Xo+++oOOOO+oo..           ",
"     .XoO++++oOO++oXo.          ",
"    .oXXOO++++oOOOoo..          ",
"   .oo.XoOOO+++oOoooXo.         ",
"   .o..XooOOOO+oo+++o...        ",
"    ..oXXXoOOO+oO+++Oooo.       ",
"    .oXXXXoooOOXOO+OOoXXo.      ",
"   .oo..ooXooooXOOOoooo..o.     ",
"   .o. .ooXXXXXXoOXo+++o..      ",
"    . .oo....oXXXoXOO++o.       ",
"      .o.  .ooooXXXoOOOoo.      ",
"      .o. .oo.....XoooOXoo.     ",
"       .  .o.     .XXXoXXo.     ",
"          .o.     .Xoo...o.     ",
"           .       .ooo. .      ",
"                    .ooo.       ",
"                     ...        ",
"                                ",
"                                ",
"                                ",
"                                ",
"                                "
};
