/* XPM */
static char *u11683884099[] = {
/* columns rows colors chars-per-pixel */
"32 32 18 1 ",
"  c None",
". c black",
"X c #5A0C0C",
"o c #5B5B5B",
"O c #9C2323",
"+ c #C83838",
"@ c #964A30",
"# c #F88058",
"$ c #034C86",
"% c #0078D8",
"& c #6FB9F4",
"* c #28C0D8",
"= c #AAAAB2",
"- c #F8B890",
"; c #A8A0C8",
": c #C8C8D8",
"> c #E8E8F8",
", c #F8F8F8",
/* pixels */
"                                ",
"                                ",
"                                ",
"            oooooooo            ",
"           oO:>OO>:Oo           ",
"          O+OOOXXOOO+O          ",
"         X+OX:>OO>:XO+X         ",
"         X+O:>>::>>:O+X         ",
"         XOX:>>::>>:XOX         ",
"         XO:>>>::>>>:OX         ",
"         XO:>>>::>>>:OX         ",
"         .X:>>>::>>>:X.         ",
"       oo.X::>>::>>::..oo       ",
"        ...:::::::::....        ",
"      .......::;;::.......      ",
"         oo..........oo         ",
"           ..........           ",
"          .$%......%$.          ",
"         .$%%%$$$$%%%$.         ",
"        .,$$$%%%%%%$$$,.        ",
"       .@==.$%%%%%%$.==@.       ",
"      .##@. $$$%%$$$ .@##.      ",
"      .-#.  $$%%%%$$  .-#.      ",
"      .-#.  $%$$$$%$  .-#.      ",
"       ..   $&&%%&&$   ..       ",
"            $&%$$%&$            ",
"           $$&%$$%&$$           ",
"           $$%%$$%%$$           ",
"           $*%....%*$           ",
"            ...  ...            ",
"                                ",
"                                "
};
