/* XPM */
static char *d21683884097[] = {
/* columns rows colors chars-per-pixel */
"32 32 26 1 ",
"  c None",
". c black",
"X c #202028",
"o c #5A0C0C",
"O c #600000",
"+ c #474751",
"@ c #5B5B5B",
"# c gray48",
"$ c #9C2323",
"% c #C83838",
"& c #964A30",
"* c #1E8A35",
"= c #2FAF4B",
"- c #F88058",
"; c #034C86",
": c #0078D8",
"> c #6FB9F4",
", c #28C0D8",
"< c gray64",
"1 c #AAAAB2",
"2 c #F8B890",
"3 c #A8A0C8",
"4 c #C8C8D8",
"5 c #D5D5D5",
"6 c #E8E8F8",
"7 c #F8F8F8",
/* pixels */
"                                ",
"               $$               ",
"            %$$$$$$%            ",
"           %$444444$%           ",
"          $$46444664$$          ",
"         o$4664466644$o         ",
"         o$4664466664$o         ",
"         o$4464466644$o         ",
"         o$$44334444$$o         ",
"         o$%$$$$$$$$%$o         ",
"         .oo%%%%%%%%oo.         ",
"       @@..oo$$$$$$oo..@        ",
"        ..X.-5<--<5-.X..@       ",
"     O.....-27.22.72-...        ",
"     .&-@@.-25.22.52-.@@..      ",
"      .&17@.---22--..@          ",
"       .1;:+.-2222X22O          ",
"        .;:+,;&&&&.-2-&         ",
"         .;:++;;;;;O-2-&        ",
"          .;:;*=;:;;O-&O        ",
"           .;;*=;::;;OO         ",
"            ;;**;::;;           ",
"            ;;OOO;;;            ",
"            ;>:;;;:;            ",
"            ;>>:;;;             ",
"            .;>:;;              ",
"           .77;:.               ",
"           .>>..                ",
"           .:::.####            ",
"            ...####             ",
"            ######              ",
"                                "
};
