/* XPM */
static char *d41683884097[] = {
/* columns rows colors chars-per-pixel */
"32 32 25 1 ",
"  c None",
". c black",
"X c #202028",
"o c #5A0C0C",
"O c #600000",
"+ c #474751",
"@ c #5B5B5B",
"# c gray48",
"$ c #9C2323",
"% c #C83838",
"& c #964A30",
"* c #1E8A35",
"= c #2FAF4B",
"- c #F88058",
"; c #034C86",
": c #0078D8",
"> c #6FB9F4",
", c #28C0D8",
"< c #AAAAB2",
"1 c #F8B890",
"2 c #A8A0C8",
"3 c #C8C8D8",
"4 c #D5D5D5",
"5 c #E8E8F8",
"6 c #F8F8F8",
/* pixels */
"                                ",
"                                ",
"                                ",
"               %%               ",
"            %$$$$$$%            ",
"           %$332233$%           ",
"          $$35533553$$          ",
"         o$3355355533$o         ",
"         o$3355535533$o         ",
"         o$2355335532$o         ",
"         o$2335335332$o         ",
"         o$$23322332$$o         ",
"         .o%$$$$$$$$%o.         ",
"        @..o%%%%%%%%o..@@       ",
"       @..XXo$$$$$$oXX..        ",
"        ...-16.11.61-.....      ",
"      ..@@.-14.11.41-.@@        ",
"         .@X---11---.@XOOO      ",
"         :X+.-1111-.+6O&--O     ",
"        O6;;;;&&&&;:;<&&&-O     ",
"       O-&@;;:;=*;:;;..OOO      ",
"      O11O@ ;:;**;:;;           ",
"      O1-O  ;:;**;:;            ",
"       OO   ;;;OO;;;            ",
"            ;:::::>;            ",
"            ;;;;;:>;            ",
"            ;;;;;:>;            ",
"            ..;;;:;.            ",
"           .,:.;;;>6.           ",
"            ....;:>>.           ",
"             ###....            ",
"                                "
};
